{
  "accessors": [
    {
      "bufferView": 2,
      "componentType": 5126,
      "count": 4180,
      "max": [
        2.0775561332702637,
        9.634852409362793,
        3.452158212661743
      ],
      "min": [
        -1.7739744186401367,
        0.46376681327819824,
        -2.8333215713500977
      ],
      "type": "VEC3"
    },
    {
      "bufferView": 2,
      "byteOffset": 50160,
      "componentType": 5126,
      "count": 4180,
      "max": [
        0.9997952580451965,
        0.999570369720459,
        0.9999423623085022
      ],
      "min": [
        -0.9994592666625977,
        -0.9954293966293335,
        -0.9999577403068542
      ],
      "type": "VEC3"
    },
    {
      "bufferView": 1,
      "componentType": 5126,
      "count": 4180,
      "max": [
        0.9906010031700134,
        0.9961280226707458
      ],
      "min": [
        0.00469100009649992,
        0.0020520000252872705
      ],
      "type": "VEC2"
    },
    {
      "bufferView": 1,
      "byteOffset": 33440,
      "componentType": 5126,
      "count": 4180,
      "max": [
        0.0,
        0.0
      ],
      "min": [
        0.0,
        0.0
      ],
      "type": "VEC2"
    },
    {
      "bufferView": 0,
      "componentType": 5125,
      "count": 6228,
      "type": "SCALAR"
    },
    {
      "bufferView": 2,
      "byteOffset": 100320,
      "componentType": 5126,
      "count": 85,
      "max": [
        4.004403591156006,
        0.480855792760849,
        4.004403591156006
      ],
      "min": [
        -4.004403591156006,
        0.0,
        -4.004403591156006
      ],
      "type": "VEC3"
    },
    {
      "bufferView": 2,
      "byteOffset": 101340,
      "componentType": 5126,
      "count": 85,
      "max": [
        0.6088424921035767,
        1.0,
        0.6088424324989319
      ],
      "min": [
        -0.608842134475708,
        -1.0,
        -0.6088420748710632
      ],
      "type": "VEC3"
    },
    {
      "bufferView": 1,
      "byteOffset": 66880,
      "componentType": 5126,
      "count": 85,
      "max": [
        0.0,
        0.0
      ],
      "min": [
        0.0,
        0.0
      ],
      "type": "VEC2"
    },
    {
      "bufferView": 1,
      "byteOffset": 67560,
      "componentType": 5126,
      "count": 85,
      "max": [
        0.875,
        1.0
      ],
      "min": [
        0.125,
        0.0
      ],
      "type": "VEC2"
    },
    {
      "bufferView": 0,
      "byteOffset": 24912,
      "componentType": 5125,
      "count": 132,
      "type": "SCALAR"
    }
  ],
  "asset": {
    "extras": {
      "author": "PencilFluke (https://sketchfab.com/pencilfluke)",
      "license": "CC-BY-4.0 (http://creativecommons.org/licenses/by/4.0/)",
      "source": "https://sketchfab.com/3d-models/90s-dad-394daab5b8014a7b9805c7e9302e8beb",
      "title": "90s Dad"
    },
    "generator": "Sketchfab-12.68.0",
    "version": "2.0"
  },
  "bufferViews": [
    {
      "buffer": 0,
      "byteLength": 25440,
      "name": "floatBufferViews",
      "target": 34963
    },
    {
      "buffer": 0,
      "byteLength": 68240,
      "byteOffset": 25440,
      "byteStride": 8,
      "name": "floatBufferViews",
      "target": 34962
    },
    {
      "buffer": 0,
      "byteLength": 102360,
      "byteOffset": 93680,
      "byteStride": 12,
      "name": "floatBufferViews",
      "target": 34962
    }
  ],
  "buffers": [
    {
      "byteLength": 196040,
      "uri": "scene.bin"
    }
  ],
  "extensionsUsed": [
    "KHR_materials_unlit"
  ],
  "images": [
    {
      "uri": "textures/lambert2_baseColor.jpeg"
    }
  ],
  "materials": [
    {
      "doubleSided": true,
      "extensions": {
        "KHR_materials_unlit": {}
      },
      "name": "lambert2",
      "pbrMetallicRoughness": {
        "baseColorTexture": {
          "index": 0
        },
        "metallicFactor": 0.0
      }
    },
    {
      "doubleSided": true,
      "extensions": {
        "KHR_materials_unlit": {}
      },
      "name": "blinn1",
      "pbrMetallicRoughness": {
        "baseColorFactor": [
          0.004895999999999999,
          0.0040290000000000005,
          0.0040290000000000005,
          1.0
        ],
        "metallicFactor": 0.0
      }
    }
  ],
  "meshes": [
    {
      "name": "polySurface37_lambert2_0",
      "primitives": [
        {
          "attributes": {
            "NORMAL": 1,
            "POSITION": 0,
            "TEXCOORD_0": 2,
            "TEXCOORD_1": 3
          },
          "indices": 4,
          "material": 0,
          "mode": 4
        }
      ]
    },
    {
      "name": "polySurface37_blinn1_0",
      "primitives": [
        {
          "attributes": {
            "NORMAL": 6,
            "POSITION": 5,
            "TEXCOORD_0": 7,
            "TEXCOORD_1": 8
          },
          "indices": 9,
          "material": 1,
          "mode": 4
        }
      ]
    }
  ],
  "nodes": [
    {
      "children": [
        1
      ],
      "matrix": [
        1.0,
        0.0,
        0.0,
        0.0,
        0.0,
        2.220446049250313e-16,
        -1.0,
        0.0,
        0.0,
        1.0,
        2.220446049250313e-16,
        0.0,
        0.0,
        0.0,
        0.0,
        1.0
      ],
      "name": "Sketchfab_model"
    },
    {
      "children": [
        2
      ],
      "matrix": [
        1.0,
        0.0,
        0.0,
        0.0,
        0.0,
        0.0,
        1.0,
        0.0,
        0.0,
        -1.0,
        0.0,
        0.0,
        0.0,
        0.0,
        0.0,
        1.0
      ],
      "name": "90sDadPose.fbx"
    },
    {
      "children": [
        3
      ],
      "name": "RootNode"
    },
    {
      "children": [
        4,
        5
      ],
      "name": "polySurface37"
    },
    {
      "mesh": 0,
      "name": "polySurface37_lambert2_0"
    },
    {
      "mesh": 1,
      "name": "polySurface37_blinn1_0"
    }
  ],
  "samplers": [
    {
      "magFilter": 9729,
      "minFilter": 9987,
      "wrapS": 10497,
      "wrapT": 10497
    }
  ],
  "scene": 0,
  "scenes": [
    {
      "name": "Sketchfab_Scene",
      "nodes": [
        0
      ]
    }
  ],
  "textures": [
    {
      "sampler": 0,
      "source": 0
    }
  ]
}
